<svg xmlns="http://www.w3.org/2000/svg" width="25" height="21" viewBox="0 0 25 21">
  <g fill="none" fill-rule="evenodd">
    <path fill="#FFF" d="M0.713,9.9626 C1.322,6.0446 3.804,4.3286 7.583,3.9836 C11.361,3.6406 11.404,0.5006 16.17,0.5006 C20.937,0.5006 24.5,7.2966 24.5,12.1566 C24.5,17.0176 21.451,20.5006 18.017,20.5006 C14.581,20.5006 13.465,17.9626 9.558,17.7906 C5.65,17.6186 -0.747,19.3396 0.713,9.9626"/>
    <path stroke="#000" stroke-linecap="round" stroke-linejoin="round" d="M0.713,9.9626 C1.322,6.0446 3.804,4.3286 7.583,3.9836 C11.361,3.6406 11.404,0.5006 16.17,0.5006 C20.937,0.5006 24.5,7.2966 24.5,12.1566 C24.5,17.0176 21.451,20.5006 18.017,20.5006 C14.581,20.5006 13.465,17.9626 9.558,17.7906 C5.65,17.6186 -0.747,19.3396 0.713,9.9626 Z"/>
    <path fill="#FC0" d="M17.5001,11.0007 C17.5001,13.4857 15.4851,15.5007 13.0001,15.5007 C10.5151,15.5007 8.5001,13.4857 8.5001,11.0007 C8.5001,8.5157 10.5151,6.5007 13.0001,6.5007 C15.4851,6.5007 17.5001,8.5157 17.5001,11.0007"/>
    <path fill="#000" d="M18.0167,20.0007 C16.4467,20.0007 15.4257,19.4407 14.2457,18.7937 C13.0377,18.1327 11.6717,17.3837 9.5797,17.2907 C9.3537,17.2807 9.1187,17.2767 8.8777,17.2767 C8.5097,17.2767 8.1257,17.2857 7.7357,17.2957 C5.6367,17.3427 3.2657,17.3997 2.0137,15.9737 C1.0377,14.8607 0.7667,12.8647 1.2067,10.0397 C1.7427,6.5987 3.7827,4.8327 7.6277,4.4817 C9.4957,4.3127 10.5297,3.5077 11.5287,2.7297 C12.6687,1.8407 13.7467,1.0007 16.1697,1.0007 C20.7117,1.0007 23.9997,7.6647 23.9997,12.1567 C23.9997,16.4817 21.3157,20.0007 18.0167,20.0007 M16.1697,0.0007 C13.4037,0.0007 12.0807,1.0307 10.9137,1.9397 C9.9477,2.6927 9.1137,3.3427 7.5377,3.4857 C3.2217,3.8797 0.8277,5.9737 0.2187,9.8857 C-0.2753,13.0617 0.0657,15.2687 1.2617,16.6327 C2.8227,18.4117 5.4467,18.3467 7.7587,18.2957 C8.3827,18.2797 8.9867,18.2667 9.5357,18.2907 C11.3947,18.3717 12.5997,19.0317 13.7637,19.6707 C14.9567,20.3247 16.1907,21.0007 18.0167,21.0007 C21.9327,21.0007 24.9997,17.1157 24.9997,12.1567 C24.9997,7.3167 21.4787,0.0007 16.1697,0.0007 M13.9907,8.6487 C13.9357,8.9207 13.6667,9.0967 13.4017,9.0407 C12.7437,8.9087 12.0627,9.1117 11.5807,9.5877 C11.1127,10.0627 10.9087,10.7437 11.0397,11.4017 C11.0947,11.6737 10.9187,11.9377 10.6487,11.9907 C10.6157,11.9977 10.5817,12.0007 10.5487,12.0007 C10.3157,12.0007 10.1077,11.8367 10.0597,11.5997 C9.8627,10.6137 10.1667,9.5977 10.8737,8.8807 C11.5957,8.1687 12.6107,7.8637 13.5987,8.0607 C13.8697,8.1137 14.0447,8.3777 13.9907,8.6487 M12.9997,15.0007 C10.7937,15.0007 8.9997,13.2067 8.9997,11.0007 C8.9997,8.7947 10.7937,7.0007 12.9997,7.0007 C15.2057,7.0007 16.9997,8.7947 16.9997,11.0007 C16.9997,13.2067 15.2057,15.0007 12.9997,15.0007 M12.9997,6.0007 C10.2437,6.0007 7.9997,8.2437 7.9997,11.0007 C7.9997,13.7577 10.2437,16.0007 12.9997,16.0007 C15.7567,16.0007 17.9997,13.7577 17.9997,11.0007 C17.9997,8.2437 15.7567,6.0007 12.9997,6.0007"/>
    <path fill="#000" d="M24.9493,11.1199 C24.9263,10.8619 24.7103,10.6649 24.4513,10.6649 C24.1923,10.6649 23.9763,10.8619 23.9533,11.1199 C23.6003,15.0429 21.0493,18.0009 18.0163,18.0009 C16.4463,18.0009 15.4263,17.4409 14.2453,16.7939 C13.0393,16.1329 11.6723,15.3839 9.5803,15.2909 C9.0083,15.2659 8.3863,15.2789 7.7423,15.2949 C4.6383,15.3709 1.4333,15.4409 1.0453,11.3409 C1.0203,11.0839 0.8043,10.8879 0.5473,10.8879 L0.5433,10.8879 C0.2833,10.8899 0.0683,11.0899 0.0493,11.3489 C-0.1447,13.8359 0.2883,15.6009 1.3713,16.7459 C2.9453,18.4069 5.5043,18.3499 7.7643,18.2949 C8.3853,18.2809 8.9863,18.2659 9.5353,18.2909 C11.3943,18.3719 12.5993,19.0319 13.7633,19.6709 C14.9573,20.3249 16.1903,21.0009 18.0163,21.0009 C21.9323,21.0009 25.0003,17.1159 25.0003,12.1569 C25.0003,11.8189 24.9813,11.4729 24.9493,11.1199" opacity=".24"/>
  </g>
</svg>
